<svg width="250" height="250" viewBox="0 0 250 250" fill="none" xmlns="http://www.w3.org/2000/svg">
<rect width="250" height="250" fill="black"/>
<path d="M163.897 83V69H86.8969V83H111.397C120.511 83 128.204 88.866 131.102 97H86.8969V111H131.102C129.665 115.083 126.999 118.62 123.471 121.127C119.943 123.634 115.725 124.987 111.397 125H86.8969V141.898L125.999 181H145.795L103.795 139H111.397C119.461 138.989 127.274 136.198 133.52 131.098C139.765 125.997 144.061 118.899 145.683 111H163.897V97H145.683C144.61 91.9054 142.399 87.1194 139.215 83H163.897Z" fill="white"/>
<rect x="86.2308" y="69" width="78.6154" height="14" fill="#EC4237"/>
</svg>
